<svg xmlns="http://www.w3.org/2000/svg" width="1180" height="760" viewBox="0 0 1180 760" font-family="DejaVu Sans,Segoe UI,Helvetica,Arial,sans-serif">
<rect width="1180" height="760" fill="#0f141b"/>
<text x="28" y="42" fill="#e6edf3" font-size="23" font-weight="700">Automatic IoT Plant Watering System — Wiring Diagram</text>
<text x="28" y="66" fill="#9aa7b4" font-size="14">DFRobot FireBeetle 2 ESP32-E · all sensors 3V3 · common ground</text>
<rect x="455" y="150" width="270" height="470" rx="12" fill="#1d6f42" stroke="#2ea043" stroke-width="2"/>
<text x="590.0" y="182" fill="#fff" font-size="16" font-weight="700" text-anchor="middle">FireBeetle 2</text>
<text x="590.0" y="202" fill="#c9f5d5" font-size="13" text-anchor="middle">ESP32-E</text>
<rect x="556.0" y="216" width="68" height="17" rx="4" fill="#0d3a22"/>
<text x="590.0" y="229" fill="#7ee2a8" font-size="10" text-anchor="middle">USB-C</text>
<rect x="452" y="249" width="16" height="18" rx="3" fill="#3fb950"/>
<text x="477" y="263" fill="#fff" font-size="11.5" font-weight="600">GPIO 36</text>
<rect x="452" y="293" width="16" height="18" rx="3" fill="#3fb950"/>
<text x="477" y="307" fill="#fff" font-size="11.5" font-weight="600">GPIO 39</text>
<rect x="452" y="337" width="16" height="18" rx="3" fill="#3fb950"/>
<text x="477" y="351" fill="#fff" font-size="11.5" font-weight="600">GPIO 34</text>
<rect x="452" y="381" width="16" height="18" rx="3" fill="#58a6ff"/>
<text x="477" y="395" fill="#fff" font-size="11.5" font-weight="600">GPIO 25</text>
<rect x="452" y="425" width="16" height="18" rx="3" fill="#58a6ff"/>
<text x="477" y="439" fill="#fff" font-size="11.5" font-weight="600">GPIO 26</text>
<rect x="452" y="469" width="16" height="18" rx="3" fill="#d29922"/>
<text x="477" y="483" fill="#fff" font-size="11.5" font-weight="600">GPIO 21</text>
<rect x="452" y="513" width="16" height="18" rx="3" fill="#d29922"/>
<text x="477" y="527" fill="#fff" font-size="11.5" font-weight="600">GPIO 22</text>
<rect x="452" y="557" width="16" height="18" rx="3" fill="#58a6ff"/>
<text x="477" y="571" fill="#fff" font-size="11.5" font-weight="600">GPIO 16</text>
<rect x="712" y="249" width="16" height="18" rx="3" fill="#58a6ff"/>
<text x="703" y="263" fill="#fff" font-size="11.5" font-weight="600" text-anchor="end">GPIO 17</text>
<rect x="712" y="293" width="16" height="18" rx="3" fill="#bc8cff"/>
<text x="703" y="307" fill="#fff" font-size="11.5" font-weight="600" text-anchor="end">GPIO 14</text>
<rect x="712" y="337" width="16" height="18" rx="3" fill="#bc8cff"/>
<text x="703" y="351" fill="#fff" font-size="11.5" font-weight="600" text-anchor="end">GPIO 13</text>
<rect x="712" y="381" width="16" height="18" rx="3" fill="#e5484d"/>
<text x="703" y="395" fill="#fff" font-size="11.5" font-weight="600" text-anchor="end">3V3</text>
<rect x="712" y="425" width="16" height="18" rx="3" fill="#8b949e"/>
<text x="703" y="439" fill="#fff" font-size="11.5" font-weight="600" text-anchor="end">GND</text>
<rect x="40" y="120" width="270" height="74" rx="8" fill="#1b2430" stroke="#33414f"/>
<rect x="40" y="120" width="5" height="74" rx="2" fill="#3fb950"/>
<text x="56" y="143" fill="#e6edf3" font-size="14" font-weight="600">Capacitive soil moisture ×3</text>
<text x="56" y="163" fill="#9aa7b4" font-size="12">ADC · GPIO 36 / 39 / 34</text>
<text x="56" y="179" fill="#9aa7b4" font-size="12">2500→0% · 6000→100%</text>
<rect x="40" y="214" width="270" height="74" rx="8" fill="#1b2430" stroke="#33414f"/>
<rect x="40" y="214" width="5" height="74" rx="2" fill="#58a6ff"/>
<text x="56" y="237" fill="#e6edf3" font-size="14" font-weight="600">DHT11 temp/humidity ×2</text>
<text x="56" y="257" fill="#9aa7b4" font-size="12">1-wire · GPIO 25, 26</text>
<text x="56" y="273" fill="#9aa7b4" font-size="12">readings averaged</text>
<rect x="40" y="308" width="270" height="74" rx="8" fill="#1b2430" stroke="#33414f"/>
<rect x="40" y="308" width="5" height="74" rx="2" fill="#d29922"/>
<text x="56" y="331" fill="#e6edf3" font-size="14" font-weight="600">BH1750 ambient light</text>
<text x="56" y="351" fill="#9aa7b4" font-size="12">I²C 0x23 · SDA 21 / SCL 22</text>
<text x="56" y="367" fill="#9aa7b4" font-size="12">auto MTreg adjust</text>
<rect x="40" y="402" width="270" height="74" rx="8" fill="#1b2430" stroke="#33414f"/>
<rect x="40" y="402" width="5" height="74" rx="2" fill="#d29922"/>
<text x="56" y="425" fill="#e6edf3" font-size="14" font-weight="600">DS3231 RTC</text>
<text x="56" y="445" fill="#9aa7b4" font-size="12">I²C · SDA 21 / SCL 22</text>
<text x="56" y="461" fill="#9aa7b4" font-size="12">NTP sync + fallback</text>
<rect x="40" y="496" width="270" height="74" rx="8" fill="#1b2430" stroke="#33414f"/>
<rect x="40" y="496" width="5" height="74" rx="2" fill="#58a6ff"/>
<text x="56" y="519" fill="#e6edf3" font-size="14" font-weight="600">HC-SR04 ultrasonic</text>
<text x="56" y="539" fill="#9aa7b4" font-size="12">TRIG 17 · ECHO 16</text>
<text x="56" y="555" fill="#9aa7b4" font-size="12">tank level 1–33 cm</text>
<path d="M 310 157 H 380 V 258 H 452" fill="none" stroke="#3fb950" stroke-width="2.2"/>
<path d="M 310 251 H 380 V 390 H 452" fill="none" stroke="#58a6ff" stroke-width="2.2"/>
<path d="M 310 345 H 380 V 478 H 452" fill="none" stroke="#d29922" stroke-width="2.2"/>
<path d="M 310 439 H 380 V 522 H 452" fill="none" stroke="#d29922" stroke-width="2.2"/>
<path d="M 310 533 H 380 V 566 H 452" fill="none" stroke="#58a6ff" stroke-width="2.2"/>
<rect x="870" y="120" width="270" height="74" rx="8" fill="#1b2430" stroke="#33414f"/>
<rect x="870" y="120" width="5" height="74" rx="2" fill="#d29922"/>
<text x="886" y="143" fill="#e6edf3" font-size="14" font-weight="600">LCD 20×4 (I²C)</text>
<text x="886" y="163" fill="#9aa7b4" font-size="12">0x27 · SDA 21 / SCL 22</text>
<text x="886" y="179" fill="#9aa7b4" font-size="12">temp · humidity · date</text>
<rect x="870" y="214" width="270" height="74" rx="8" fill="#1b2430" stroke="#33414f"/>
<rect x="870" y="214" width="5" height="74" rx="2" fill="#bc8cff"/>
<text x="886" y="237" fill="#e6edf3" font-size="14" font-weight="600">Water pump (relay)</text>
<text x="886" y="257" fill="#9aa7b4" font-size="12">GPIO 14 · active-LOW</text>
<text x="886" y="273" fill="#9aa7b4" font-size="12">4 s burst · 12 h cooldown</text>
<rect x="870" y="308" width="270" height="74" rx="8" fill="#1b2430" stroke="#33414f"/>
<rect x="870" y="308" width="5" height="74" rx="2" fill="#bc8cff"/>
<text x="886" y="331" fill="#e6edf3" font-size="14" font-weight="600">Grow light (relay)</text>
<text x="886" y="351" fill="#9aa7b4" font-size="12">GPIO 13 · active-LOW</text>
<text x="886" y="367" fill="#9aa7b4" font-size="12">on 12:00–14:00</text>
<rect x="870" y="402" width="270" height="90" rx="8" fill="#1b2430" stroke="#33414f"/>
<rect x="870" y="402" width="5" height="90" rx="2" fill="#e5484d"/>
<text x="886" y="425" fill="#e6edf3" font-size="14" font-weight="600">Power rail</text>
<text x="886" y="445" fill="#9aa7b4" font-size="12">3V3 → all sensor VCC</text>
<text x="886" y="461" fill="#9aa7b4" font-size="12">GND → common ground</text>
<text x="886" y="477" fill="#9aa7b4" font-size="12">USB-C 5V in</text>
<path d="M 728 258 H 795 V 157 H 870" fill="none" stroke="#58a6ff" stroke-width="2.2"/>
<path d="M 728 302 H 795 V 251 H 870" fill="none" stroke="#bc8cff" stroke-width="2.2"/>
<path d="M 728 346 H 795 V 345 H 870" fill="none" stroke="#bc8cff" stroke-width="2.2"/>
<path d="M 728 390 H 795 V 447 H 870" fill="none" stroke="#e5484d" stroke-width="2.2"/>
<rect x="870" y="516" width="270" height="86" rx="8" fill="#1b2430" stroke="#33414f"/>
<rect x="870" y="516" width="5" height="86" rx="2" fill="#58a6ff"/>
<text x="886" y="539" fill="#e6edf3" font-size="14" font-weight="600">ThingSpeak (8 fields)</text>
<text x="886" y="559" fill="#9aa7b4" font-size="12">temp · humidity · moisture</text>
<text x="886" y="575" fill="#9aa7b4" font-size="12">pump time · light · lux · tank</text>
<text x="886" y="591" fill="#9aa7b4" font-size="12">field 8 = ML dry-out forecast</text>
<path d="M 590.0 620 V 660 H 1005 V 602" fill="none" stroke="#58a6ff" stroke-width="2.2" stroke-dasharray="6 5"/>
<text x="760" y="654" fill="#58a6ff" font-size="11.5">WiFi / HTTPS</text>
<rect x="40" y="640" width="700" height="86" rx="8" fill="#1b2430" stroke="#33414f"/>
<text x="58" y="664" fill="#e6edf3" font-size="13" font-weight="600">Legend</text>
<rect x="58" y="677" width="22" height="5" rx="2" fill="#e5484d"/>
<text x="90" y="686" fill="#9aa7b4" font-size="12">3V3 power</text>
<rect x="288" y="677" width="22" height="5" rx="2" fill="#8b949e"/>
<text x="320" y="686" fill="#9aa7b4" font-size="12">Ground</text>
<rect x="518" y="677" width="22" height="5" rx="2" fill="#d29922"/>
<text x="550" y="686" fill="#9aa7b4" font-size="12">I²C bus</text>
<rect x="58" y="701" width="22" height="5" rx="2" fill="#3fb950"/>
<text x="90" y="710" fill="#9aa7b4" font-size="12">Analog (ADC)</text>
<rect x="288" y="701" width="22" height="5" rx="2" fill="#58a6ff"/>
<text x="320" y="710" fill="#9aa7b4" font-size="12">Digital I/O</text>
<rect x="518" y="701" width="22" height="5" rx="2" fill="#bc8cff"/>
<text x="550" y="710" fill="#9aa7b4" font-size="12">Relay / actuator</text>
</svg>
